<?xml version="1.0" standalone="no"?>
<!DOCTYPE svg PUBLIC "-//W3C//DTD SVG 20010904//EN"
 "http://www.w3.org/TR/2001/REC-SVG-20010904/DTD/svg10.dtd">
<svg version="1.0" xmlns="http://www.w3.org/2000/svg"
 width="1563.000000pt" height="1563.000000pt" viewBox="0 0 1563.000000 1563.000000"
 preserveAspectRatio="xMidYMid meet">

<g transform="translate(0.000000,1563.000000) scale(0.100000,-0.100000)"
fill="#000000" stroke="none">
<path d="M7440 13309 c-1253 -93 -2426 -631 -3311 -1518 -841 -843 -1343
-1883 -1494 -3091 -23 -177 -32 -801 -16 -1008 69 -874 369 -1740 853 -2465
478 -716 1113 -1297 1864 -1702 611 -330 1213 -517 1939 -601 186 -22 861 -26
1045 -6 1103 118 2041 518 2885 1231 139 118 461 442 587 591 675 802 1073
1722 1203 2780 22 176 32 776 16 986 -122 1676 -1066 3200 -2520 4074 -649
389 -1351 624 -2141 715 -163 19 -729 28 -910 14z m518 -2109 c620 -38 1172
-271 1631 -688 81 -74 264 -272 258 -279 -2 -2 -460 54 -1018 123 l-1014 126
-1008 -127 c-554 -69 -1013 -125 -1019 -123 -6 2 23 42 65 89 480 540 1140
853 1862 882 39 2 75 4 80 5 6 1 79 -3 163 -8z m1038 -904 c637 -80 1173 -146
1189 -149 17 -2 -552 -5 -1263 -5 -1024 -1 -1291 1 -1285 11 4 6 8 67 8 133 0
103 -2 121 -15 119 -8 -1 -13 -6 -10 -11 3 -5 8 -8 11 -7 3 1 6 -4 6 -12 0 -8
-3 -13 -6 -12 -3 1 -6 -2 -6 -8 0 -5 3 -9 6 -8 3 1 6 -4 6 -12 0 -8 -3 -13 -6
-12 -3 1 -6 -2 -6 -8 0 -5 3 -9 6 -8 3 1 6 -4 6 -12 0 -8 -3 -13 -6 -12 -3 1
-6 -2 -6 -8 0 -5 3 -9 6 -8 3 1 6 -4 6 -12 0 -8 -3 -13 -6 -12 -3 1 -6 -2 -6
-8 0 -5 3 -9 6 -8 3 1 6 -4 6 -12 0 -8 -3 -13 -6 -12 -3 1 -6 -2 -6 -8 0 -5 3
-9 6 -8 3 1 6 -4 6 -12 0 -8 -5 -13 -11 -12 -6 1 -10 -3 -9 -8 1 -6 -21 -10
-50 -10 l-52 0 0 122 c0 67 4 125 8 130 5 4 26 9 48 9 21 1 40 2 42 4 8 6 142
27 188 29 19 0 557 -64 1195 -143z m54 -4072 c662 -82 1191 -150 1175 -152
-17 -2 -565 -70 -1220 -151 -1099 -137 -1196 -147 -1270 -139 -100 12 -110 15
-98 31 5 6 9 41 9 76 -1 60 -2 64 -26 68 -14 2 -41 19 -60 38 -35 34 -36 35
-36 11 0 -14 3 -23 7 -20 4 2 12 -3 18 -10 12 -15 5 -24 -16 -20 -7 1 -56 2
-108 3 l-95 1 6 25 c6 24 4 25 -34 25 -26 0 -42 -5 -46 -15 -3 -8 -1 -15 4
-15 6 0 10 -4 10 -10 0 -6 -48 -10 -125 -10 -77 0 -125 4 -125 10 0 6 7 10 15
10 12 0 15 16 15 80 0 66 -3 80 -16 80 -9 0 -14 6 -11 13 2 7 23 12 57 12 34
0 55 -5 58 -12 2 -7 -3 -13 -12 -13 -13 0 -16 -14 -16 -80 l0 -80 35 0 c24 0
35 5 35 14 0 26 20 28 29 4 l9 -23 10 25 c86 211 90 213 146 75 33 -83 42 -95
62 -95 23 0 24 2 24 80 0 64 -3 80 -15 80 -8 0 -15 7 -15 15 0 11 12 15 45 16
25 1 53 2 63 3 11 1 17 -6 17 -19 0 -11 -6 -20 -14 -20 -8 0 -15 -7 -17 -16
-1 -10 4 -16 12 -15 22 3 38 24 39 49 0 18 6 22 35 22 l35 0 1 75 c0 41 -4 81
-9 88 -5 6 -8 13 -6 13 17 6 178 26 194 24 11 -1 562 -70 1225 -151z m-1433
112 c-1 -6 3 -10 9 -9 6 1 11 -4 11 -12 0 -8 -3 -13 -6 -12 -3 1 -7 -2 -7 -8
-1 -5 1 -9 5 -8 4 1 8 -4 8 -12 0 -8 -4 -13 -8 -12 -4 1 -7 -2 -7 -8 0 -5 3
-9 7 -8 4 1 8 -4 8 -12 0 -8 -4 -13 -8 -12 -4 1 -7 -2 -7 -8 0 -5 3 -9 7 -8 4
1 8 -4 8 -11 0 -7 -6 -13 -13 -13 -7 0 -12 4 -11 8 1 4 -2 6 -8 6 -5 -1 -9 -6
-7 -10 1 -5 -2 -6 -7 -3 -5 4 -13 2 -16 -4 -4 -7 -11 -7 -18 -2 -7 5 -19 8
-27 7 -13 -2 -16 11 -15 74 0 71 2 76 22 76 12 0 24 2 27 6 10 9 55 5 53 -5z
m-47 -200 c0 -2 -6 -9 -14 -15 -11 -9 -16 -9 -22 0 -4 7 -3 9 4 5 6 -3 13 -2
17 4 6 10 15 14 15 6z m44 -189 c4 5 6 1 4 -7 -1 -8 2 -14 8 -13 6 1 11 -4 11
-12 0 -8 -4 -13 -8 -12 -4 1 -7 -2 -7 -8 0 -5 3 -9 7 -8 4 1 8 -4 8 -12 0 -8
-4 -13 -8 -12 -4 1 -7 -2 -7 -8 0 -5 3 -9 7 -8 4 1 8 -4 8 -12 0 -8 -5 -13
-11 -12 -6 1 -10 -3 -9 -9 1 -6 -4 -11 -12 -11 -8 0 -13 3 -12 6 1 3 -2 7 -8
8 -5 0 -9 -3 -7 -9 1 -5 -3 -6 -10 -1 -7 4 -22 8 -33 8 -17 0 -20 7 -20 66 -1
55 2 66 15 64 8 -1 21 2 28 8 10 8 8 15 -10 36 -13 14 -5 9 18 -12 22 -20 44
-34 48 -30z"/>
<path d="M7526 10391 c-1 -3 -2 -58 -2 -121 l1 -115 35 -1 c37 0 63 13 54 27
-3 5 -10 7 -15 3 -5 -3 -6 -11 -2 -17 4 -7 0 -6 -10 2 -9 7 -17 10 -17 6 0 -4
-6 -2 -13 4 -15 11 -17 48 -4 68 4 6 3 14 -1 17 -10 6 -10 46 1 63 4 6 3 14
-2 17 -10 7 -9 32 3 43 4 4 6 3 4 -3 -1 -7 2 -12 7 -12 6 0 9 3 8 7 -1 4 4 8
12 8 8 0 12 -4 9 -8 -2 -4 0 -10 5 -13 5 -4 12 -2 15 3 4 5 1 13 -6 18 -15 9
-78 12 -82 4z m19 -50 c3 -5 2 -12 -3 -15 -5 -3 -9 1 -9 9 0 17 3 19 12 6z m0
-80 c3 -5 2 -12 -3 -15 -5 -3 -9 1 -9 9 0 17 3 19 12 6z m4 -84 c8 -10 7 -14
-2 -14 -8 0 -14 6 -14 14 0 7 1 13 2 13 2 0 8 -6 14 -13z"/>
<path d="M7575 10360 c-3 -5 -12 -7 -18 -3 -8 4 -7 1 1 -9 7 -9 9 -19 4 -22
-10 -6 -10 -46 1 -63 4 -6 3 -14 -1 -17 -15 -9 -7 -61 9 -62 24 -1 50 27 38
42 -7 8 -7 14 1 19 6 3 8 11 4 16 -10 17 -22 0 -19 -31 1 -17 0 -29 -3 -26 -3
3 -12 0 -21 -7 -14 -10 -14 -10 -4 4 10 12 10 18 0 29 -9 9 -9 11 0 6 8 -4 11
0 8 14 -2 11 -1 19 3 17 4 -1 8 1 10 6 5 17 1 19 -15 6 -15 -11 -16 -11 -6 1
10 11 10 17 0 29 -9 11 -9 13 0 8 8 -5 11 -1 8 11 -2 10 2 19 10 19 7 0 11
-11 10 -29 -3 -29 9 -46 19 -29 4 5 2 13 -4 16 -8 5 -8 11 -1 19 8 9 6 18 -8
30 -13 12 -21 14 -26 6z"/>
<path d="M7620 6127 c-8 -7 -23 -22 -32 -33 -17 -20 -16 -21 20 -57 l38 -37
-1 64 c0 72 -3 80 -25 63z m17 -11 c0 -8 -3 -14 -6 -13 -3 1 -7 -2 -7 -8 -1
-5 1 -9 5 -8 4 1 8 -4 8 -12 0 -8 -4 -13 -8 -12 -4 1 -7 -2 -7 -8 0 -5 3 -9 7
-8 4 1 8 -5 8 -13 0 -10 -9 -6 -29 13 l-28 27 27 28 c31 33 30 32 30 14z"/>
<path d="M7596 6081 c-4 -5 -2 -12 3 -15 5 -4 12 -2 15 3 4 5 2 12 -3 15 -5 4
-12 2 -15 -3z"/>
<path d="M7290 6083 c0 -6 -3 -18 -6 -27 -4 -12 0 -16 15 -16 12 0 21 4 21 8
0 13 -29 48 -30 35z"/>
<path d="M7565 6330 c-3 -5 -13 -7 -23 -5 -16 3 -18 -5 -17 -61 0 -35 3 -63 6
-62 3 2 13 -3 21 -9 12 -10 20 -8 42 16 18 19 24 31 16 36 -8 5 -8 10 0 20 7
8 7 15 1 19 -13 8 -18 -3 -16 -36 1 -15 -3 -26 -9 -25 -6 1 -10 -4 -8 -12 2
-11 0 -12 -11 -3 -8 7 -16 10 -19 7 -7 -8 -3 38 5 51 3 6 3 14 0 18 -4 4 -8
13 -9 22 -2 12 1 13 12 3 12 -10 18 -6 16 12 -1 3 5 6 13 6 8 0 12 -4 9 -8 -2
-4 0 -10 5 -13 5 -4 12 -2 15 3 7 10 -10 24 -31 27 -7 1 -15 -2 -18 -6z m-20
-49 c3 -5 2 -12 -3 -15 -5 -3 -9 1 -9 9 0 17 3 19 12 6z"/>
<path d="M7575 6300 c-4 -6 -12 -7 -18 -3 -8 4 -7 1 1 -9 8 -10 9 -19 3 -22
-8 -5 -8 -14 -2 -45 3 -13 29 23 26 37 -1 9 2 22 7 29 5 7 5 14 -1 17 -5 4
-12 2 -16 -4z m2 -45 c0 -8 -4 -12 -9 -9 -5 3 -6 10 -3 15 9 13 12 11 12 -6z"/>
<path d="M7561 5947 c-6 -6 -17 -12 -24 -12 -7 0 -12 -20 -12 -56 -1 -50 1
-56 20 -55 11 1 25 5 32 9 6 4 14 3 18 -3 4 -6 11 -8 16 -4 6 4 6 11 -1 19 -8
9 -8 15 0 20 6 3 8 11 4 16 -9 15 -23 0 -19 -20 2 -13 -2 -18 -13 -16 -9 1
-22 -2 -29 -7 -13 -10 -13 8 0 29 4 6 3 14 -2 17 -10 7 -9 32 3 43 4 4 6 3 4
-3 -3 -11 1 -14 18 -14 4 0 1 6 -5 13 -8 10 -7 14 4 14 8 0 11 -5 8 -10 -4 -6
-1 -7 7 -2 8 5 11 4 6 -3 -3 -6 -2 -13 3 -16 21 -13 19 12 -2 32 -19 18 -26
19 -36 9z m-16 -66 c3 -5 2 -12 -3 -15 -5 -3 -9 1 -9 9 0 17 3 19 12 6z"/>
<path d="M7575 5900 c-4 -6 -12 -7 -18 -3 -9 5 -9 3 0 -8 9 -11 10 -18 1 -27
-8 -8 -6 -10 8 -8 11 2 19 7 19 12 0 5 4 14 8 21 4 6 3 14 -2 17 -5 4 -12 2
-16 -4z"/>
</g>
</svg>
